<?xml version="1.0" encoding="UTF-8"?>
<svg width="12px" height="12px" viewBox="0 0 12 12" version="1.1" xmlns="http://www.w3.org/2000/svg" xmlns:xlink="http://www.w3.org/1999/xlink">
    <!-- Generator: Sketch 52.5 (67469) - http://www.bohemiancoding.com/sketch -->
    <title>路径</title>
    <desc>Created with Sketch.</desc>
    <g id="默林泰国海洋馆乐园小程序" stroke="none" stroke-width="1" fill="none" fill-rule="evenodd">
        <g id="首页" transform="translate(-337.000000, -672.000000)" fill="#49536D" fill-rule="nonzero">
            <g id="分组-3" transform="translate(8.000000, 654.000000)">
                <g id="分组-4" transform="translate(329.000000, 18.000000)">
                    <path d="M6,4.38148714 L10.0462822,0.335204989 C10.4932221,-0.111734996 11.217855,-0.111734996 11.664795,0.335204989 C12.111735,0.782144974 12.111735,1.50677786 11.664795,1.95371785 L7.61851286,6 L11.664795,10.0462822 C12.111735,10.4932221 12.111735,11.217855 11.664795,11.664795 C11.217855,12.111735 10.4932221,12.111735 10.0462822,11.664795 L6,7.61851286 L1.95371785,11.664795 C1.50677786,12.111735 0.782144974,12.111735 0.335204989,11.664795 C-0.111734996,11.217855 -0.111734996,10.4932221 0.335204989,10.0462822 L4.38148714,6 L0.335204989,1.95371785 C-0.111734996,1.50677786 -0.111734996,0.782144974 0.335204989,0.335204989 C0.782144974,-0.111734996 1.50677786,-0.111734996 1.95371785,0.335204989 L6,4.38148714 Z" id="路径"></path>
                </g>
            </g>
        </g>
    </g>
</svg>