<?xml version="1.0" encoding="UTF-8"?>
<svg width="40px" height="40px" viewBox="0 0 40 40" version="1.1" xmlns="http://www.w3.org/2000/svg" xmlns:xlink="http://www.w3.org/1999/xlink">
    <!-- Generator: Sketch 52.5 (67469) - http://www.bohemiancoding.com/sketch -->
    <title>合并形状</title>
    <desc>Created with Sketch.</desc>
    <g id="默林泰国海底商店小程序" stroke="none" stroke-width="1" fill="none" fill-rule="evenodd">
        <g id="指引" transform="translate(-168.000000, -625.000000)" fill="#E8F1FA" fill-rule="nonzero">
            <path d="M188,661 C196.836556,661 204,653.836556 204,645 C204,636.163444 196.836556,629 188,629 C179.163444,629 172,636.163444 172,645 C172,653.836556 179.163444,661 188,661 Z M188,665 C176.954305,665 168,656.045695 168,645 C168,633.954305 176.954305,625 188,625 C199.045695,625 208,633.954305 208,645 C208,656.045695 199.045695,665 188,665 Z M188,642.044815 L192.432777,637.612039 C193.248828,636.795987 194.57191,636.795987 195.387961,637.612039 C196.204013,638.42809 196.204013,639.751172 195.387961,640.567223 L190.955185,645 L195.387961,649.432777 C196.204013,650.248828 196.204013,651.57191 195.387961,652.387961 C194.57191,653.204013 193.248828,653.204013 192.432777,652.387961 L188,647.955185 L183.567223,652.387961 C182.751172,653.204013 181.42809,653.204013 180.612039,652.387961 C179.795987,651.57191 179.795987,650.248828 180.612039,649.432777 L185.044815,645 L180.612039,640.567223 C179.795987,639.751172 179.795987,638.42809 180.612039,637.612039 C181.42809,636.795987 182.751172,636.795987 183.567223,637.612039 L188,642.044815 Z" id="合并形状"></path>
        </g>
    </g>
</svg>