<?xml version="1.0" encoding="UTF-8"?>
<svg width="16px" height="16px" viewBox="0 0 16 16" version="1.1" xmlns="http://www.w3.org/2000/svg" xmlns:xlink="http://www.w3.org/1999/xlink">
    <!-- Generator: Sketch 52.5 (67469) - http://www.bohemiancoding.com/sketch -->
    <title>合并形状</title>
    <desc>Created with Sketch.</desc>
    <g id="默林泰国海洋馆乐园小程序" stroke="none" stroke-width="1" fill="none" fill-rule="evenodd">
        <g id="首页" transform="translate(-28.000000, -670.000000)">
            <g id="分组-3" transform="translate(8.000000, 654.000000)">
                <g id="分组-2" transform="translate(20.000000, 16.000000)">
                    <polygon id="路径" fill="#FFB800" points="3 6 13 6 13 13 3 13"></polygon>
                    <path d="M4.42037857,3 L2.39976343,1.64509233 C1.98360771,1.36501656 1.8739862,0.804865012 2.15819011,0.394754057 C2.44239402,-0.0153568976 3.01080184,-0.123386125 3.42695756,0.156689649 L7.66744632,3 L7.7674999,3 L12.614864,0.128682072 C13.0472599,-0.127387207 13.6075476,0.0106501386 13.8694212,0.436765423 C14.1292648,0.862880708 13.9891929,1.41503009 13.5567969,1.67309991 L11.3146667,3 L14.8609912,3 C15.488442,3 15.9999942,3.52450749 15.9999942,4.1678487 L15.9999942,14.8321513 C16.0019924,15.4754925 15.4904402,16 14.8629895,16 L1.13900296,16 C0.511552205,16 0,15.4754925 0,14.8321513 L0,4.1678487 C0,3.52450749 0.511552205,3 1.13900296,3 L4.42037857,3 Z M7.08598726,5 L2,5 L2,14 L14,14 L14,5 L8.87738854,5 L8.87738854,11.7504085 C8.87738854,12.2569444 8.47730892,12.6695261 7.9816879,12.6695261 C7.48606688,12.6695261 7.08598726,12.2589869 7.08598726,11.7504085 L7.08598726,5 Z" id="合并形状" fill="#2D3D70" fill-rule="nonzero"></path>
                </g>
            </g>
        </g>
    </g>
</svg>