<?xml version="1.0" encoding="UTF-8"?>
<svg width="127px" height="127px" viewBox="0 0 127 127" version="1.1" xmlns="http://www.w3.org/2000/svg" xmlns:xlink="http://www.w3.org/1999/xlink">
    <!-- Generator: Sketch 52.5 (67469) - http://www.bohemiancoding.com/sketch -->
    <title>合并形状</title>
    <desc>Created with Sketch.</desc>
    <g id="默林泰国海底商店小程序" stroke="none" stroke-width="1" fill="none" fill-rule="evenodd">
        <g id="海底商店首页" transform="translate(-188.000000, -110.000000)" fill="#F2F5FB" fill-rule="nonzero">
            <path d="M308.933535,124.563882 C305.595251,124.680865 302.328088,124.866822 299.132055,125.121722 C298.30625,125.187585 297.583411,124.57153 297.517549,123.745725 C297.451687,122.91992 298.067742,122.197081 298.893547,122.131218 C302.205153,121.8671 305.590613,121.67606 309.049938,121.558065 L300.914967,113.035714 C300.342958,112.436466 300.365039,111.486976 300.964286,110.914967 C301.563534,110.342958 302.513024,110.365039 303.085033,110.964286 L314.573669,123 L303.085033,135.035714 C302.513024,135.634961 301.563534,135.657042 300.964286,135.085033 C300.365039,134.513024 300.342958,133.563534 300.914967,132.964286 L308.933535,124.563882 Z M290.87602,122.930782 C291.698501,122.831705 292.445571,123.41814 292.544648,124.240621 C292.643725,125.063102 292.05729,125.810173 291.234809,125.909249 C287.193913,126.396019 283.27587,127.001662 279.480673,127.726087 C278.666937,127.881412 277.881358,127.347665 277.726033,126.53393 C277.570707,125.720194 278.104454,124.934615 278.91819,124.77929 C282.781791,124.041808 286.767737,123.425669 290.87602,122.930782 Z M271.01011,126.50011 C271.814634,126.302547 272.626988,126.794586 272.824551,127.59911 C273.022115,128.403635 272.530076,129.215988 271.725551,129.413552 C267.781607,130.38205 263.983254,131.491128 260.330404,132.740659 C259.546567,133.008786 258.693782,132.590721 258.425655,131.806884 C258.157528,131.023048 258.575593,130.170263 259.35943,129.902136 C263.097379,128.623495 266.980969,127.489529 271.01011,126.50011 Z M251.792278,132.771348 C252.556511,132.451599 253.435252,132.811926 253.755,133.576159 C254.074748,134.340393 253.714422,135.219133 252.950189,135.538881 C249.230607,137.09512 245.679861,138.814418 242.297695,140.696692 C241.573818,141.09955 240.66042,140.839314 240.257562,140.115438 C239.854703,139.391562 240.11494,138.478163 240.838816,138.075305 C244.319505,136.1382 247.970744,134.370242 251.792278,132.771348 Z M233.87539,142.32813 C234.563974,141.86754 235.495564,142.052367 235.956154,142.740951 C236.416744,143.429535 236.231918,144.361125 235.543333,144.821715 C232.235071,147.034591 229.112134,149.427456 226.174138,152.000456 C225.55092,152.54625 224.603249,152.483486 224.057455,151.860268 C223.511661,151.23705 223.574426,150.289379 224.197644,149.743585 C227.233719,147.084689 230.459762,144.612822 233.87539,142.32813 Z M218.351792,155.339049 C218.924253,154.740234 219.87376,154.71887 220.472575,155.291331 C221.071391,155.863792 221.092755,156.813299 220.520294,157.412115 C217.810072,160.247106 215.286722,163.265532 212.950019,166.467768 C212.461695,167.13697 211.523335,167.283602 210.854133,166.795278 C210.184931,166.306955 210.038299,165.368595 210.526623,164.699393 C212.941262,161.390351 215.549727,158.270112 218.351792,155.339049 Z M206.005676,171.486889 C206.435476,170.778677 207.358016,170.552979 208.066228,170.982779 C208.77444,171.412578 209.000137,172.335119 208.570338,173.04333 C206.558624,176.358177 204.719367,179.843857 203.052609,183.500678 C202.709023,184.254496 201.819402,184.587054 201.065585,184.243468 C200.311768,183.899883 199.979209,183.010262 200.322795,182.256445 C202.038004,178.493325 203.932283,174.90337 206.005676,171.486889 Z M197.21484,189.787723 C197.503665,189.011275 198.36724,188.615979 199.143688,188.904805 C199.920136,189.19363 200.315432,190.057205 200.026606,190.833653 C198.680745,194.451722 197.48497,198.21892 196.439413,202.135372 C196.225735,202.935768 195.403666,203.411397 194.60327,203.197719 C193.802874,202.984041 193.327246,202.161972 193.540923,201.361576 C194.610763,197.354166 195.835358,193.496173 197.21484,189.787723 Z M191.66791,209.282985 C191.836096,208.47181 192.630025,207.950564 193.4412,208.11875 C194.252375,208.286936 194.773621,209.080865 194.605435,209.89204 C193.821307,213.673957 193.164541,217.582286 192.63524,221.617048 C192.527486,222.438437 191.774267,223.016953 190.952877,222.909199 C190.131488,222.801445 189.552972,222.048225 189.660726,221.226836 C190.199532,217.119615 190.868559,213.138325 191.66791,209.282985 Z M188.800007,229.109895 C188.872632,228.284657 189.600494,227.674545 190.425731,227.74717 C191.250969,227.819796 191.861082,228.547657 191.788456,229.372895 C191.623308,231.249462 191.483698,233.151324 191.369635,235.078477 C191.320688,235.905457 190.610609,236.536177 189.783629,236.487231 C188.956649,236.438284 188.325929,235.728205 188.374876,234.901225 C188.490623,232.945631 188.63233,231.015188 188.800007,229.109895 Z" id="合并形状"></path>
        </g>
    </g>
</svg>