<?xml version="1.0" encoding="UTF-8"?>
<svg width="32px" height="32px" viewBox="0 0 32 32" version="1.1" xmlns="http://www.w3.org/2000/svg" xmlns:xlink="http://www.w3.org/1999/xlink">
    <!-- Generator: Sketch 52.5 (67469) - http://www.bohemiancoding.com/sketch -->
    <title>homepage</title>
    <desc>Created with Sketch.</desc>
    <g id="默林泰国海底商店小程序" stroke="none" stroke-width="1" fill="none" fill-rule="evenodd">
        <g id="首页" transform="translate(-78.000000, -1134.000000)">
            <g id="navbar" transform="translate(0.000000, 1116.000000)">
                <g id="homepage" transform="translate(78.000000, 18.000000)">
                    <path d="M29.6476594,15.0210931 C30.1174359,15.4967352 30.1174359,16.268455 29.6477251,16.7440298 C29.2442487,17.1527516 28.6769411,17.0161521 28.0332948,16.5813889 L16.0328671,4.47954973 L4.7852301,15.6540938 L3.96699229,16.4837169 C3.43859213,17.0175315 2.81840185,17.2169129 2.35233238,16.7440971 C1.88255587,16.2684213 1.88255587,15.4972062 2.35233238,15.0226072 L14.5129499,2.71371548 C14.5858439,2.61375561 14.7146388,2.47961222 14.901434,2.3481941 C15.2103318,2.13101437 15.5781484,2 15.999307,2 C16.3934665,2 16.7526553,2.13034147 17.0696888,2.34479593 C17.2579931,2.47221029 17.3936771,2.60117229 17.4543019,2.67519172 L29.6476594,15.0210931 Z M25.0293168,14.3540099 C25.5862907,14.3540099 26.0398284,14.8114163 26.0442243,15.3823416 L26.0442243,27.0364978 C26.0442243,28.6750523 24.7354768,30 23.1222604,30 L19.2607625,30 C18.7084778,30 18.2607625,29.5522847 18.2607625,29 L18.2607625,21.7587784 C18.2607625,21.1863391 17.8003028,20.7204541 17.2310597,20.7204541 L14.7689321,20.7204541 C14.1997546,20.7204541 13.7392293,21.1863391 13.7392293,21.7587784 L13.7392293,29 C13.7392293,29.5522847 13.291514,30 12.7392293,30 L8.87779702,30 C7.26408849,30 5.95583309,28.6753215 5.95583309,27.0364978 L5.95583309,15.38325 C5.95803109,14.8131995 6.41232333,14.3540436 6.97074062,14.3540436 C7.52833775,14.3540436 7.9830893,14.8139733 7.98417188,15.3845958 L7.98417188,26.8991245 C7.98417188,27.4717657 8.44482843,27.938189 9.01387474,27.938189 L11.7109561,27.938189 L11.7109561,21.6199584 C11.7109561,19.982245 13.0195067,18.6571964 14.6328872,18.6571964 L17.3664485,18.6571964 C18.980321,18.6571964 20.2884124,19.9819758 20.2884124,21.6199584 L20.2884124,27.938189 L22.9854609,27.938189 C23.5544417,27.938189 24.0151638,27.4717657 24.0151638,26.8991246 L24.0151638,15.3867828 L24.0151638,15.3810294 C24.0172962,14.8122911 24.4717852,14.3540099 25.0293168,14.3540099 Z" fill="#FFFFFF"></path>
                    <rect fill="#D8D8D8" fill-rule="nonzero" opacity="0" x="0" y="0" width="32" height="32"></rect>
                </g>
            </g>
        </g>
    </g>
</svg>