<?xml version="1.0" encoding="UTF-8"?>
<svg width="32px" height="32px" viewBox="0 0 32 32" version="1.1" xmlns="http://www.w3.org/2000/svg" xmlns:xlink="http://www.w3.org/1999/xlink">
    <!-- Generator: Sketch 52.5 (67469) - http://www.bohemiancoding.com/sketch -->
    <title>profile</title>
    <desc>Created with Sketch.</desc>
    <g id="默林泰国海底商店小程序" stroke="none" stroke-width="1" fill="none" fill-rule="evenodd">
        <g id="首页" transform="translate(-265.000000, -1134.000000)">
            <g id="navbar" transform="translate(0.000000, 1116.000000)">
                <g id="profile" transform="translate(265.000000, 18.000000)">
                    <path d="M28.9861182,28.7562309 L29,28.9653344 L28.9790776,28.9653344 C28.9489228,29.5121574 28.4902905,29.9464291 27.9288396,29.9464291 C27.3478611,29.9464291 26.8769078,29.4814705 26.8769078,28.9079605 C26.8769078,28.8788473 26.8784355,28.8500947 26.8808266,28.8215717 L26.8779706,28.7845573 C26.6117911,25.3907401 25.2525658,22.8067153 22.8383534,21.1029055 L22.6854871,20.9948785 L22.6882103,20.9902886 C22.4472706,20.794922 22.3037031,20.506872 22.3037031,20.2004295 C22.3037031,19.67413 22.6975424,19.3600157 23.357561,19.3600157 C23.5496486,19.3600157 23.7362896,19.4128981 23.9000157,19.5117125 L23.9015766,19.5094175 L24.0746347,19.6274112 C26.9533244,21.8529306 28.7436176,25.1800957 28.9861182,28.7562309 Z M25.5983832,11.3632334 C25.5983832,14.2445208 24.2601135,16.9258846 21.9273988,18.7185093 L21.1327461,19.233334 L20.1596221,19.7910417 C18.8310497,20.4146474 17.4357582,20.7272207 15.9989207,20.7272207 C14.4480395,20.7272207 12.7190191,20.1863646 11.5864199,19.66695 C7.79279035,21.1585418 5.13876739,24.7783468 4.81556613,28.9122225 L4.80158465,29.0930324 L4.78305338,29.0930324 C4.78331904,29.1018517 4.78371757,29.1106709 4.78371757,29.1195556 C4.78371757,29.6058245 4.38439863,30 3.89185879,30 C3.39928571,30 3,29.6057917 3,29.1195556 C3,29.1106709 3.00039853,29.1018516 3.0006642,29.0930324 L3,29.0930324 L3.00109593,29.0765088 C3.0012952,29.0727057 3.0016273,29.069001 3.00185976,29.0652307 L3.01398148,28.8838962 C3.30848918,24.5339993 5.91050502,20.5939493 9.83063205,18.5285523 C7.64686489,16.7396979 6.40095263,14.1449196 6.40095263,11.3632334 C6.40095263,6.20049507 10.7067825,2 15.9996845,2 C21.2925866,2 25.5983832,6.20049503 25.5983832,11.3632334 Z M15.9996513,18.8418797 C20.2293966,18.8418797 23.6703343,15.4863883 23.6703343,11.3624793 C23.6703343,7.23932438 20.2293966,3.88458704 15.9996513,3.88458704 C11.7703045,3.88458704 8.32976536,7.23932438 8.32976536,11.3624793 C8.32976536,15.4863556 11.7703045,18.8418797 15.9996513,18.8418797 Z" fill="#FFFFFF"></path>
                    <rect fill="#D8D8D8" fill-rule="nonzero" opacity="0" x="0" y="0" width="32" height="32"></rect>
                </g>
            </g>
        </g>
    </g>
</svg>