<?xml version="1.0" encoding="UTF-8"?>
<svg width="20px" height="20px" viewBox="0 0 20 20" version="1.1" xmlns="http://www.w3.org/2000/svg" xmlns:xlink="http://www.w3.org/1999/xlink">
    <!-- Generator: Sketch 52.5 (67469) - http://www.bohemiancoding.com/sketch -->
    <title>share</title>
    <desc>Created with Sketch.</desc>
    <g id="默林泰国海底商店小程序" stroke="none" stroke-width="1" fill="none" fill-rule="evenodd">
        <g id="奖品详情" transform="translate(-321.000000, -485.000000)" fill="#FFFFFF" fill-rule="nonzero">
            <path d="M331,485 C331.552285,485 332,485.447715 332,486 C332,486.552285 331.552285,487 331,487 C326.581722,487 323,490.581722 323,495 C323,499.418278 326.581722,503 331,503 C335.418278,503 339,499.418278 339,495 C339,494.447715 339.447715,494 340,494 C340.552285,494 341,494.447715 341,495 C341,500.522847 336.522847,505 331,505 C325.477153,505 321,500.522847 321,495 C321,489.477153 325.477153,485 331,485 Z M337.585786,487 L335,487 C334.447715,487 334,486.552285 334,486 C334,485.447715 334.447715,485 335,485 L341,485 L341,491 C341,491.552285 340.552285,492 340,492 C339.447715,492 339,491.552285 339,491 L339,488.414214 L332.707107,494.707107 C332.316582,495.097631 331.683418,495.097631 331.292893,494.707107 C330.902369,494.316582 330.902369,493.683418 331.292893,493.292893 L337.585786,487 Z" id="share"></path>
        </g>
    </g>
</svg>