<?xml version="1.0" encoding="UTF-8"?>
<svg width="36px" height="24px" viewBox="0 0 36 24" version="1.1" xmlns="http://www.w3.org/2000/svg" xmlns:xlink="http://www.w3.org/1999/xlink">
    <!-- Generator: Sketch 52.5 (67469) - http://www.bohemiancoding.com/sketch -->
    <title>ticket</title>
    <desc>Created with Sketch.</desc>
    <g id="默林泰国海底商店小程序" stroke="none" stroke-width="1" fill="none" fill-rule="evenodd">
        <g id="门票详情" transform="translate(-20.000000, -1700.000000)" fill="#FFFFFF" fill-rule="nonzero">
            <g id="button" transform="translate(0.000000, 1677.000000)">
                <path d="M53,34.9998469 C52.9997818,36.0695075 53.7522509,36.9912822 54.8,37.2051531 C55.4984994,37.3477336 56.0001455,37.9622501 56,38.675 L56,44.75 C56,45.9926407 54.9926407,47 53.75,47 L22.25,47 C21.0073593,47 20,45.9926407 20,44.75 L20,38.6751531 C19.9998545,37.9622501 20.5015007,37.3477336 21.2007519,37.205 C22.2493977,36.9920634 23.0030076,36.0700467 23.0030076,35 C23.0030076,33.9299533 22.2493977,33.0079366 21.2,32.7948469 C20.5015007,32.6522664 19.9998545,32.0377499 20,31.325 L20,25.25 C20,24.0073593 21.0073593,23 22.25,23 L53.75,23 C54.9926407,23 56,24.0073593 56,25.25 L56,31.3248469 C56.0001455,32.0377499 55.4984994,32.6522664 54.8,32.7948469 C53.7522509,33.0087178 52.9997818,33.9304925 53,34.9998469 Z M54.5,31.3251531 L54.5,25.25 C54.5,24.8357864 54.1642136,24.5 53.75,24.5 L22.25,24.5 C21.8357865,24.5 21.5,24.8357864 21.5,25.25 L21.5,31.3251531 C23.2469911,31.6798943 24.5030076,33.2165888 24.5030076,35 C24.5030076,36.7834112 23.2469911,38.3201057 21.5,38.6748469 L21.5,44.75 C21.5,45.1642136 21.8357865,45.5 22.25,45.5 L53.75,45.5 C54.1642136,45.5 54.5,45.1642136 54.5,44.75 L54.5,38.6748469 C52.7538016,38.3184057 51.4997081,36.7821922 51.5,35 C51.4997081,33.2178078 52.7538016,31.6815943 54.5,31.3251531 Z M27.875,43.25 C27.2536797,43.25 26.75,42.7463203 26.75,42.125 C26.75,41.5036797 27.2536797,41 27.875,41 C28.4961236,41 28.9996809,41.5033606 28.9999999,42.1244096 C29,42.7463203 28.4963204,43.25 27.875,43.25 Z M27.875,39.5 C27.2536797,39.5 26.75,38.9963203 26.75,38.375 C26.75,37.7536797 27.2536797,37.25 27.875,37.25 C28.4961236,37.25 28.9996809,37.7533606 28.9999999,38.3744096 C29,38.9963203 28.4963204,39.5 27.875,39.5 Z M27.875,35.75 C27.2536797,35.75 26.75,35.2463203 26.75,34.625 C26.75,34.0036797 27.2536797,33.5 27.875,33.5 C28.4961236,33.5 28.9996809,34.0033606 28.9999999,34.6244096 C29,35.2463203 28.4963204,35.75 27.875,35.75 Z M27.875,32 C27.2536797,32 26.75,31.4963203 26.75,30.875 C26.75,30.2536797 27.2536797,29.75 27.875,29.75 C28.4961236,29.75 28.9996809,30.2533606 28.9999999,30.8744096 C29,31.4963203 28.4963204,32 27.875,32 Z M27.875,28.25 C27.2536797,28.25 26.75,27.7463203 26.75,27.125 C26.75,26.5036797 27.2536797,26 27.875,26 C28.4961236,26 28.9996809,26.5033606 28.9999999,27.1244096 C29,27.7463203 28.4963204,28.25 27.875,28.25 Z" id="ticket"></path>
            </g>
        </g>
    </g>
</svg>