<?xml version="1.0" encoding="UTF-8"?>
<svg width="12px" height="12px" viewBox="0 0 12 12" version="1.1" xmlns="http://www.w3.org/2000/svg" xmlns:xlink="http://www.w3.org/1999/xlink">
    <!-- Generator: Sketch 52.5 (67469) - http://www.bohemiancoding.com/sketch -->
    <title>ticket 02</title>
    <desc>Created with Sketch.</desc>
    <g id="默林泰国海底商店小程序" stroke="none" stroke-width="1" fill="none" fill-rule="evenodd" opacity="0.639999986">
        <g id="全部订单" transform="translate(-167.000000, -219.000000)" fill="#FFFFFF">
            <g id="分组-2" transform="translate(20.000000, 108.000000)">
                <path d="M158.7,115.244165 L157.8,114.29623 C157.714286,114.210054 157.628571,114.166966 157.5,114.166966 C157.414286,114.166966 157.285714,114.210054 157.2,114.29623 C157.028571,114.468582 156.771429,114.597846 156.514286,114.597846 C156.257143,114.597846 156,114.468582 155.828571,114.29623 C155.657143,114.123878 155.528571,113.86535 155.528571,113.563734 C155.528571,113.305206 155.657143,113.046679 155.828571,112.874327 C156,112.701975 156,112.443447 155.828571,112.271095 L154.928571,111.32316 C154.5,110.89228 153.771429,110.89228 153.342857,111.32316 L147.342857,117.140036 C147.128571,117.355476 147,117.614004 147,117.915619 C147,118.217235 147.128571,118.518851 147.3,118.734291 L148.2,119.682226 C148.285714,119.768402 148.371429,119.81149 148.5,119.81149 C148.628571,119.81149 148.714286,119.768402 148.8,119.682226 C148.971429,119.509874 149.228571,119.38061 149.528571,119.38061 C149.785714,119.38061 150.042857,119.509874 150.214286,119.682226 C150.385714,119.854578 150.514286,120.113106 150.514286,120.414722 C150.514286,120.67325 150.385714,120.931777 150.214286,121.104129 C150.042857,121.276481 150.042857,121.535009 150.214286,121.707361 L151.114286,122.655296 C151.328571,122.870736 151.628571,123 151.928571,123 C152.228571,123 152.485714,122.913824 152.7,122.698384 L158.657143,116.83842 C158.871429,116.62298 159,116.364452 159,116.062837 C159,115.718133 158.914286,115.459605 158.7,115.244165 Z M150.942857,117.958707 C150.814286,117.958707 150.728571,117.915619 150.642857,117.829443 C150.471429,117.657092 150.471429,117.398564 150.642857,117.226212 L153,114.813285 C153.171429,114.640934 153.428571,114.640934 153.6,114.813285 C153.771429,114.985637 153.771429,115.244165 153.6,115.416517 L151.242857,117.829443 C151.157143,117.915619 151.028571,117.958707 150.942857,117.958707 Z M154.885714,116.709156 L152.528571,119.122083 C152.442857,119.208259 152.314286,119.251346 152.228571,119.251346 C152.142857,119.251346 152.014286,119.208259 151.928571,119.122083 C151.757143,118.949731 151.757143,118.691203 151.928571,118.518851 L154.285714,116.105925 C154.457143,115.933573 154.714286,115.933573 154.885714,116.105925 C155.057143,116.278276 155.057143,116.536804 154.885714,116.709156 Z" id="ticket-02"></path>
            </g>
        </g>
    </g>
</svg>